<svg width="28" height="28" viewBox="0 0 28 28" fill="none" xmlns="http://www.w3.org/2000/svg">
<path fill-rule="evenodd" clip-rule="evenodd" d="M14 28C21.732 28 28 21.732 28 14C28 6.26801 21.732 0 14 0C6.26801 0 0 6.26801 0 14C0 21.732 6.26801 28 14 28ZM15.7987 20.6944V10.8549H13.1144V20.6944H15.7987ZM15.4907 7.28163C15.2032 7.09388 14.86 7 14.461 7C14.0561 7 13.71 7.09388 13.4225 7.28163C13.1408 7.46352 13 7.80676 13 8.31136C13 8.81008 13.1408 9.15626 13.4225 9.34988C13.71 9.53764 14.0561 9.63151 14.461 9.63151C14.86 9.63151 15.2032 9.53764 15.4907 9.34988C15.7782 9.15626 15.9219 8.81008 15.9219 8.31136C15.9219 7.80676 15.7782 7.46352 15.4907 7.28163Z" fill="#07E77B"/>
</svg>
