<svg width="31" height="63" viewBox="0 0 31 63" fill="none" xmlns="http://www.w3.org/2000/svg">
<path fill-rule="evenodd" clip-rule="evenodd" d="M11.6477 2.05017C11.6424 2.05542 11.6353 2.0643 11.6306 2.0847C11.6258 2.10583 11.6309 2.128 11.6443 2.14495L20.5255 13.303C22.2811 15.5088 21.1028 18.791 18.3452 19.3765L12.7725 20.5599C12.5566 20.6058 12.5108 20.8937 12.7018 21.0043C12.7244 21.0174 12.749 21.0267 12.7746 21.0319L19.63 22.4234L20.1639 21.9776C21.6225 20.7598 23.8076 21.8343 23.8076 23.7013C23.8076 25.3463 22.1611 26.2848 20.8396 25.8149C20.6755 26.5203 20.3903 27.2411 20.014 27.9095C19.4079 28.9862 18.5282 29.9927 17.4359 30.5961L16.777 29.4032C17.5909 28.9536 18.3082 28.1618 18.8266 27.241C19.3204 26.3637 19.6004 25.4286 19.6327 24.6634L19.3038 23.7477L12.5035 22.3673C12.3332 22.3328 12.1696 22.2707 12.0191 22.1836C10.7479 21.4477 11.0526 19.532 12.4894 19.2269L18.0622 18.0436C19.8292 17.6683 20.5842 15.5651 19.4593 14.1517L10.5781 2.99358C10.3068 2.65267 10.2052 2.20688 10.3019 1.78204C10.5596 0.650932 11.9838 0.277976 12.7628 1.13763L25.0314 14.6771C25.3534 15.0324 25.6104 15.4416 25.7907 15.8859L30.6686 27.9103C31.1437 29.0812 30.282 30.3606 29.0184 30.3606C28.2654 30.3606 27.5938 29.887 27.3409 29.1777L27.0757 28.4336C26.8259 27.733 25.7869 27.925 25.804 28.6686L25.8658 31.359C25.8682 31.4601 25.9009 31.5093 25.9291 31.5377C25.9644 31.5734 26.0225 31.6046 26.0965 31.6137C26.1706 31.6227 26.2345 31.6064 26.2773 31.5804C26.3115 31.5595 26.3552 31.5197 26.3818 31.4221L27.6964 31.781C27.2028 33.589 24.5466 33.264 24.5035 31.3903L24.4416 28.6999C24.389 26.409 27.5898 25.8176 28.3592 27.976L28.6245 28.7202C28.6839 28.8867 28.8416 28.9979 29.0184 28.9979C29.3151 28.9979 29.5174 28.6975 29.4059 28.4225L24.5279 16.3982C24.4077 16.1019 24.2363 15.829 24.0216 15.5921L11.753 2.05266C11.7389 2.03715 11.7284 2.0329 11.7212 2.03091C11.7115 2.02825 11.6978 2.02744 11.6821 2.03155C11.6664 2.03566 11.6548 2.04311 11.6477 2.05017ZM20.6176 23.3741L20.9286 24.2401C21.3859 24.8483 22.4449 24.5575 22.4449 23.7013C22.4449 22.957 21.5831 22.5679 21.0373 23.0237L20.6176 23.3741ZM11.6476 61.3134C11.6423 61.3082 11.6352 61.2993 11.6306 61.2789C11.6258 61.2577 11.6308 61.2356 11.6443 61.2186L20.5254 50.0605C22.281 47.8548 21.1028 44.5726 18.3452 43.987L12.7725 42.8037C12.5565 42.7578 12.5107 42.4699 12.7018 42.3593C12.7244 42.3462 12.749 42.3369 12.7746 42.3317L19.63 40.9402L20.1638 41.3859C21.6225 42.6038 23.8076 41.5293 23.8076 39.6623C23.8076 38.0173 22.1611 37.0788 20.8396 37.5487C20.6754 36.8432 20.3903 36.1225 20.014 35.4541C19.4079 34.3774 18.5282 33.3709 17.4359 32.7675L16.777 33.9604C17.5909 34.4099 18.3082 35.2018 18.8265 36.1226C19.3204 36.9998 19.6004 37.935 19.6326 38.7002L19.3038 39.6159L12.5035 40.9962C12.3331 41.0308 12.1695 41.0929 12.0191 41.18C10.7478 41.9159 11.0526 43.8315 12.4894 44.1366L18.0621 45.32C19.8292 45.6953 20.5842 47.7985 19.4592 49.2119L10.5781 60.37C10.3068 60.7109 10.2051 61.1567 10.3019 61.5815C10.5596 62.7126 11.9838 63.0856 12.7627 62.2259L25.0314 48.6865C25.3534 48.3312 25.6104 47.922 25.7906 47.4777L30.6686 35.4533C31.1436 34.2824 30.282 33.003 29.0184 33.003C28.2654 33.003 27.5937 33.4766 27.3409 34.1858L27.0756 34.93C26.8259 35.6306 25.7869 35.4386 25.8039 34.695L25.8658 32.0046C25.8681 31.9034 25.9009 31.8543 25.9291 31.8258C25.9643 31.7902 26.0225 31.759 26.0965 31.7499C26.1705 31.7408 26.2345 31.7571 26.2773 31.7832C26.3115 31.8041 26.3551 31.8438 26.3818 31.9414L27.6964 31.5826C27.2028 29.7746 24.5465 30.0996 24.5035 31.9733L24.4416 34.6637C24.3889 36.9545 27.5897 37.546 28.3592 35.3875L28.6245 34.6434C28.6838 34.4769 28.8416 34.3657 29.0184 34.3657C29.3151 34.3657 29.5174 34.6661 29.4059 34.941L24.5279 46.9654C24.4077 47.2617 24.2363 47.5346 24.0216 47.7715L11.7529 61.3109C11.7389 61.3264 11.7283 61.3307 11.7212 61.3327C11.7115 61.3353 11.6977 61.3361 11.682 61.332C11.6663 61.3279 11.6547 61.3205 11.6476 61.3134ZM20.6175 39.9895L20.9285 39.1235C21.3858 38.5153 22.4449 38.8061 22.4449 39.6623C22.4449 40.4066 21.5831 40.7957 21.0372 40.3399L20.6175 39.9895ZM19.1534 61.3136C19.1587 61.3083 19.1658 61.2994 19.1704 61.279C19.1753 61.2579 19.1702 61.2357 19.1567 61.2188L10.2756 50.0607C8.51999 47.855 9.69822 44.5728 12.4558 43.9872L18.0286 42.8038C18.2445 42.758 18.2903 42.4701 18.0992 42.3595C18.0766 42.3464 18.052 42.3371 18.0264 42.3319L11.171 40.9403L10.6372 41.3861C9.17855 42.604 6.99346 41.5294 6.99346 39.6624C6.99346 38.0175 8.63991 37.079 9.96142 37.5488C10.1256 36.8434 10.4107 36.1227 10.787 35.4543C11.3932 34.3775 12.2728 33.3711 13.3652 32.7677L14.0241 33.9605C13.2101 34.4101 12.4929 35.2019 11.9745 36.1227C11.4806 37 11.2007 37.9351 11.1684 38.7003L11.4973 39.6161L18.2975 40.9964C18.4679 41.031 18.6315 41.093 18.782 41.1801C20.0532 41.916 19.7484 43.8317 18.3116 44.1368L12.7389 45.3202C10.9718 45.6954 10.2168 47.7986 11.3418 49.2121L20.2229 60.3702C20.4943 60.7111 20.5959 61.1569 20.4991 61.5817C20.2415 62.7128 18.8172 63.0858 18.0383 62.2261L5.76962 48.6867C5.44764 48.3314 5.19065 47.9222 5.0104 47.4779L0.132412 35.4535C-0.342608 34.2825 0.519037 33.0031 1.78266 33.0031C2.53565 33.0031 3.20727 33.4767 3.46012 34.186L3.72539 34.9301C3.97517 35.6308 5.01416 35.4388 4.99707 34.6952L4.93522 32.0048C4.93289 31.9036 4.90012 31.8545 4.87196 31.826C4.83671 31.7904 4.77856 31.7591 4.70453 31.7501C4.6305 31.741 4.56654 31.7573 4.52374 31.7834C4.48953 31.8042 4.44588 31.844 4.41924 31.9416L3.10464 31.5827C3.59823 29.7747 6.25449 30.0998 6.29756 31.9734L6.35941 34.6638C6.41207 36.9547 3.21127 37.5461 2.44181 35.3877L2.17654 34.6436C2.11717 34.477 1.95947 34.3658 1.78266 34.3658C1.48595 34.3658 1.28362 34.6663 1.39516 34.9412L6.27315 46.9656C6.39335 47.2619 6.56471 47.5347 6.77941 47.7717L19.0481 61.3111C19.0621 61.3266 19.0727 61.3309 19.0799 61.3328C19.0895 61.3355 19.1033 61.3363 19.119 61.3322C19.1347 61.3281 19.1463 61.3206 19.1534 61.3136ZM10.1835 39.9896L9.87248 39.1236C9.41517 38.5155 8.35616 38.8063 8.35616 39.6624C8.35616 40.4067 9.21794 40.7958 9.76379 40.3401L10.1835 39.9896ZM19.1534 2.0507C19.1587 2.05595 19.1658 2.06484 19.1705 2.08524C19.1753 2.10636 19.1702 2.12853 19.1567 2.14549L10.2756 13.3036C8.52001 15.5093 9.69824 18.7915 12.4559 19.3771L18.0286 20.5604C18.2445 20.6063 18.2903 20.8942 18.0993 21.0048C18.0767 21.0179 18.0521 21.0272 18.0265 21.0324L11.1711 22.4239L10.6372 21.9782C9.17857 20.7603 6.99349 21.8349 6.99349 23.7019C6.99349 25.3468 8.63994 26.2853 9.96145 25.8154C10.1256 26.5209 10.4107 27.2416 10.787 27.91C11.3932 28.9867 12.2729 29.9932 13.3652 30.5966L14.0241 29.4038C13.2101 28.9542 12.4929 28.1624 11.9745 27.2415C11.4806 26.3643 11.2007 25.4292 11.1684 24.6639L11.4973 23.7482L18.2975 22.3679C18.4679 22.3333 18.6315 22.2712 18.782 22.1841C20.0532 21.4483 19.7485 19.5326 18.3116 19.2275L12.7389 18.0441C10.9718 17.6689 10.2168 15.5656 11.3418 14.1522L20.2229 2.99411C20.4943 2.6532 20.5959 2.20741 20.4991 1.78258C20.2415 0.651466 18.8173 0.278511 18.0383 1.13817L5.76964 14.6776C5.44767 15.0329 5.19068 15.4421 5.01043 15.8864L0.132439 27.9108C-0.34258 29.0817 0.519064 30.3611 1.78268 30.3611C2.53568 30.3611 3.2073 29.8875 3.46015 29.1783L3.72542 28.4342C3.97519 27.7335 5.01419 27.9255 4.9971 28.6691L4.93525 31.3595C4.93292 31.4607 4.90015 31.5098 4.87198 31.5383C4.83674 31.5739 4.77859 31.6051 4.70456 31.6142C4.63053 31.6233 4.56657 31.607 4.52376 31.5809C4.48956 31.56 4.44591 31.5203 4.41927 31.4227L3.10467 31.7816C3.59826 33.5895 6.25452 33.2645 6.29759 31.3908L6.35944 28.7004C6.4121 26.4096 3.2113 25.8181 2.44184 27.9766L2.17657 28.7207C2.1172 28.8872 1.95949 28.9984 1.78268 28.9984C1.48597 28.9984 1.28365 28.698 1.39519 28.4231L6.27318 16.3987C6.39338 16.1024 6.56474 15.8296 6.77944 15.5926L19.0481 2.05319C19.0621 2.03768 19.0727 2.03343 19.0799 2.03145C19.0895 2.02878 19.1033 2.02798 19.119 2.03209C19.1347 2.0362 19.1463 2.04365 19.1534 2.0507ZM10.1835 23.3746L9.87251 24.2406C9.4152 24.8488 8.35619 24.558 8.35619 23.7019C8.35619 22.9575 9.21797 22.5684 9.76382 23.0242L10.1835 23.3746Z" fill="#07E77B"/>
</svg>
